<svg xmlns="http://www.w3.org/2000/svg" x="0px" y="0px" width="100" height="100" viewBox="0 0 50 50">
<path d="M 28.875 0 C 28.855469 0.0078125 28.832031 0.0195313 28.8125 0.03125 L 0.8125 5.3125 C 0.335938 5.402344 -0.0078125 5.824219 0 6.3125 L 0 43.59375 C -0.0078125 44.082031 0.335938 44.503906 0.8125 44.59375 L 28.8125 49.96875 C 29.101563 50.023438 29.402344 49.949219 29.632813 49.761719 C 29.859375 49.574219 29.996094 49.296875 30 49 L 30 41.90625 C 30.351563 41.964844 30.683594 42 31 42 C 34.242188 42 36.871094 39.457031 37 36.25 C 39.667969 35.269531 41.894531 33.417969 43.34375 30.96875 C 43.554688 30.992188 43.78125 31 44 31 C 47.300781 31 50 28.300781 50 25 C 50 21.699219 47.300781 19 44 19 C 43.804688 19 43.597656 19.011719 43.40625 19.03125 C 41.957031 16.523438 39.683594 14.644531 36.96875 13.65625 C 36.792969 10.492188 34.210938 8 31 8 C 30.664063 8 30.332031 8.007813 30 8.0625 L 30 1 C 30.003906 0.710938 29.878906 0.4375 29.664063 0.246094 C 29.449219 0.0546875 29.160156 -0.0351563 28.875 0 Z M 28 2.1875 L 28 47.8125 L 2 42.78125 L 2 7.125 Z M 31 10 C 33.277344 10 35 11.722656 35 14 C 35 16.277344 33.277344 18 31 18 C 30.675781 18 30.316406 17.957031 30 17.875 L 30 10.125 C 30.289063 10.042969 30.601563 10 31 10 Z M 14.59375 15.40625 C 13.59375 15.40625 12.710938 15.488281 11.8125 15.6875 C 10.914063 15.886719 10.199219 16.289063 9.5 16.6875 C 8.800781 17.1875 8.304688 17.707031 7.90625 18.40625 C 7.507813 19.105469 7.3125 19.90625 7.3125 20.90625 C 7.3125 22.105469 7.707031 23.101563 8.40625 24 C 9.105469 24.898438 10.195313 25.585938 11.59375 26.1875 C 12.195313 26.488281 12.6875 26.707031 13.1875 26.90625 C 13.6875 27.105469 14.101563 27.394531 14.5 27.59375 C 14.800781 27.894531 15.113281 28.105469 15.3125 28.40625 C 15.511719 28.707031 15.59375 29.007813 15.59375 29.40625 C 15.59375 29.605469 15.507813 29.894531 15.40625 30.09375 C 15.304688 30.292969 15.113281 30.488281 14.8125 30.6875 C 14.511719 30.886719 14.210938 30.992188 13.8125 31.09375 C 13.414063 31.195313 12.90625 31.1875 12.40625 31.1875 C 11.507813 31.1875 10.710938 30.988281 9.8125 30.6875 C 8.914063 30.386719 8.105469 29.914063 7.40625 29.3125 L 7.40625 33.40625 C 8.007813 33.707031 8.789063 33.992188 9.6875 34.09375 C 10.585938 34.292969 11.59375 34.40625 12.59375 34.40625 C 13.59375 34.40625 14.507813 34.292969 15.40625 34.09375 C 16.304688 33.894531 16.988281 33.585938 17.6875 33.1875 C 18.386719 32.789063 18.914063 32.199219 19.3125 31.5 C 19.613281 30.800781 19.804688 30.007813 19.90625 28.90625 C 19.90625 28.207031 19.792969 27.601563 19.59375 27 C 19.292969 26.398438 18.992188 25.898438 18.59375 25.5 C 18.195313 25 17.695313 24.613281 17.09375 24.3125 C 16.492188 23.914063 15.792969 23.613281 15.09375 23.3125 C 14.59375 23.113281 14.085938 22.886719 13.6875 22.6875 C 13.289063 22.488281 12.894531 22.292969 12.59375 22.09375 C 12.292969 21.894531 12.105469 21.605469 11.90625 21.40625 C 11.804688 21.207031 11.6875 20.894531 11.6875 20.59375 C 11.6875 20.292969 11.804688 20.011719 11.90625 19.8125 C 12.007813 19.613281 12.199219 19.386719 12.5 19.1875 C 12.800781 18.988281 13.101563 18.914063 13.5 18.8125 C 13.898438 18.710938 14.3125 18.6875 14.8125 18.6875 C 15.210938 18.6875 15.507813 18.710938 15.90625 18.8125 C 16.207031 18.8125 16.601563 18.898438 17 19 C 17.398438 19.101563 17.695313 19.207031 18.09375 19.40625 C 18.492188 19.605469 18.792969 19.800781 19.09375 20 L 19.09375 16.09375 C 18.492188 15.894531 17.792969 15.695313 17.09375 15.59375 C 16.394531 15.492188 15.59375 15.40625 14.59375 15.40625 Z M 36.75 15.6875 C 38.667969 16.492188 40.28125 17.84375 41.40625 19.59375 C 39.394531 20.566406 38 22.625 38 25 C 38 27.347656 39.367188 29.390625 41.34375 30.375 C 40.210938 32.097656 38.625 33.429688 36.71875 34.21875 C 35.960938 31.773438 33.699219 30 31 30 C 30.664063 30 30.332031 30.007813 30 30.0625 L 30 19.90625 C 30.351563 19.964844 30.683594 20 31 20 C 33.734375 20 36.023438 18.183594 36.75 15.6875 Z M 44 21 C 46.222656 21 48 22.777344 48 25 C 48 27.222656 46.222656 29 44 29 C 41.777344 29 40 27.222656 40 25 C 40 22.777344 41.777344 21 44 21 Z M 31 32 C 33.277344 32 35 33.722656 35 36 C 35 38.277344 33.277344 40 31 40 C 30.675781 40 30.316406 39.957031 30 39.875 L 30 32.125 C 30.289063 32.042969 30.601563 32 31 32 Z"></path>
</svg>